<?xml version="1.0" standalone="no"?>
<!DOCTYPE svg PUBLIC "-//W3C//DTD SVG 20010904//EN"
 "http://www.w3.org/TR/2001/REC-SVG-20010904/DTD/svg10.dtd">
<svg version="1.0" xmlns="http://www.w3.org/2000/svg"
 width="267.000000pt" height="267.000000pt" viewBox="0 0 267.000000 267.000000"
 preserveAspectRatio="xMidYMid meet">
<metadata>
Created by potrace 1.11, written by Peter Selinger 2001-2013
</metadata>
<g transform="translate(0.000000,267.000000) scale(0.100000,-0.100000)"
fill="#000000" stroke="none">
<path d="M1473 2649 c-37 -14 -66 -35 -97 -71 l-44 -50 -39 30 c-35 28 -138
72 -166 72 -14 0 -48 -125 -41 -145 3 -6 28 -20 57 -30 47 -16 123 -63 115
-70 -2 -2 -48 -8 -102 -15 -409 -49 -694 -251 -833 -590 -28 -68 -62 -190 -77
-280 -5 -27 -14 -40 -41 -54 -50 -27 -123 -108 -147 -164 -32 -72 -37 -219 -9
-293 38 -100 113 -169 226 -207 56 -19 57 -20 90 -96 105 -241 289 -446 499
-556 164 -86 298 -114 509 -107 186 5 268 25 422 101 217 107 385 287 507 542
44 93 52 103 81 109 52 11 145 65 179 104 81 92 108 231 69 359 -26 85 -68
144 -141 195 l-55 38 -16 87 c-34 176 -104 333 -204 460 -166 210 -384 315
-742 359 l-63 8 36 45 c41 52 52 59 113 75 42 10 46 14 49 45 2 19 1 54 -3 77
-6 42 -7 43 -43 42 -20 0 -61 -9 -89 -20z m140 -460 c185 -37 316 -101 428
-206 38 -36 85 -86 103 -112 83 -113 149 -293 163 -446 l8 -80 56 -26 c64 -31
116 -79 135 -126 54 -129 -53 -263 -211 -263 -40 0 -41 -1 -53 -46 -30 -110
-120 -271 -221 -392 -109 -130 -280 -239 -446 -284 -117 -31 -356 -31 -470 0
-222 61 -405 198 -537 402 -67 102 -86 141 -122 241 l-28 76 -59 6 c-69 6
-136 41 -171 90 -19 26 -23 45 -23 104 0 64 3 75 31 109 16 21 57 52 90 70 32
18 64 37 70 42 6 6 14 45 17 88 18 230 138 456 310 588 149 112 302 165 547
189 81 8 291 -5 383 -24z"/>
<path d="M875 1762 c-193 -57 -311 -184 -366 -393 -43 -163 -35 -288 25 -415
35 -75 132 -187 192 -225 26 -16 47 -44 79 -109 141 -281 381 -420 633 -366
190 40 334 160 448 371 22 41 64 96 101 133 105 103 164 213 184 343 25 162
-35 397 -132 513 -45 54 -140 112 -224 139 -59 18 -93 22 -210 21 -93 0 -161
-5 -203 -16 -57 -14 -69 -14 -115 -1 -32 9 -111 16 -202 19 -123 3 -161 1
-210 -14z m385 -167 c71 -17 79 -17 165 0 222 44 407 11 508 -91 73 -73 125
-232 113 -349 -11 -107 -82 -226 -178 -295 -28 -20 -51 -54 -88 -127 -67 -136
-153 -229 -258 -280 -73 -37 -80 -38 -181 -38 -98 0 -111 2 -173 32 -117 55
-207 156 -272 306 -30 70 -39 81 -92 115 -75 49 -129 109 -163 181 -21 46 -26
70 -26 136 1 210 112 368 294 417 81 22 238 19 351 -7z"/>
<path d="M911 1234 c-32 -27 -51 -76 -51 -133 0 -43 64 -111 104 -111 45 0 94
26 112 61 18 36 15 104 -7 153 -27 58 -107 73 -158 30z"/>
<path d="M1603 1250 c-52 -22 -84 -124 -59 -185 16 -38 68 -75 106 -75 38 0
90 36 106 75 18 43 3 123 -29 161 -25 28 -87 40 -124 24z"/>
</g>
</svg>
