
<svg width="146" height="132" fill="none" xmlns="http://www.w3.org/2000/svg"><g filter="url(#filter0_d)"><path fill-rule="evenodd" clip-rule="evenodd" d="M80.3 4.2c-1 .1-2 .4-2.6.9a38.5 38.5 0 00-4 5l-1.5 2.4-1.8-2.3a10.7 10.7 0 00-.3-.3 29.9 29.9 0 00-2.7-2.7 41 41 0 00-4.8-1.7l.4-2 .5-2a25.3 25.3 0 012.3.7c1.1.4 2.8 1 3.8 1.6.8.5 1.6 1.3 2.2 2v-.2A19 19 0 0175.4 2C76.7.9 78.5.4 79.7.2a16.5 16.5 0 012.2-.2h.1a265.2 265.2 0 010 4 5.7 5.7 0 00-.4 0c-.4 0-.8 0-1.3.2z" fill="#fff"/></g><g filter="url(#filter1_d)"><path fill-rule="evenodd" clip-rule="evenodd" d="M34 46.5V48l-1.4.4a7.4 7.4 0 00-1.2.5l-2.7 1.7a7.7 7.7 0 00-2.7 7.6 8 8 0 004.9 6.3 11.9 11.9 0 004 1h1.6l.4 1.4v.1a14.2 14.2 0 00.4 1 44.3 44.3 0 006.9 12.2c5.3 6.7 14 13.3 27.8 13.3s22.5-6.6 27.8-13.3a44.3 44.3 0 007.3-13.2l.4-1.5h1.5a6.8 6.8 0 001.2-.1c.8-.1 1.9-.4 3-.9a8 8 0 004.8-6.3c.6-3.7-1-6-2.7-7.6a12.7 12.7 0 00-3.9-2.2L110 48v-1.5a14.3 14.3 0 000-1.3l-.6-3.5c-.6-3-1.8-7-4.1-11C100.7 23 91.3 15 72 15c-19.3 0-28.7 8-33.3 15.8A34.5 34.5 0 0034 46.5zm80-1.4V45a37 37 0 00-5.3-16.2c-5.4-9-16-17.7-36.7-17.7-20.7 0-31.3 8.7-36.7 17.7A38.5 38.5 0 0030 45.1a17.4 17.4 0 00-4 2.5c-2.5 2.2-5 5.9-4 11.2a12 12 0 007.2 9.4 15.9 15.9 0 004.2 1.2 43 43 0 007.6 13.4C47 90 56.8 97.5 72 97.5s25-7.4 31-14.7a48.3 48.3 0 007.5-13.4 15.7 15.7 0 004.2-1.2c3-1.3 6.4-4 7.3-9.4.9-5.3-1.6-9-4.1-11.2a16.7 16.7 0 00-4-2.5zm-54-7.7c-6 .2-12.3 2.4-15.1 9.8-3 7.8-1 13 1.7 16.4a19 19 0 006.2 5l.9.5.2.8a9 9 0 00.2.6 25.5 25.5 0 003.9 7c2.9 3.9 7.3 7.5 14 7.5a18 18 0 0014.3-7.5 29.4 29.4 0 004.3-7.6l.3-.8.6-.4a4.6 4.6 0 00.5-.2l1.3-1c1-.9 2.5-2.2 3.7-4 2.4-3.4 4.2-8.8 1.6-16.3-2.4-7.2-8.5-9.3-14.6-9.6a36.4 36.4 0 00-11.3 1.3h-.1l-.6.2-.6-.2a16.8 16.8 0 00-1-.3A36.1 36.1 0 0060 37.4zm12-2.5a31.4 31.4 0 00-3.2-.8 39 39 0 00-9-.7c-6.8.2-15 2.8-18.7 12.4-3.5 9.2-1 16 2.4 20.3a23 23 0 006.9 5.8 29.6 29.6 0 004.4 8C58 84.5 63.7 89 72 89a22 22 0 0017.4-9 33.4 33.4 0 004.7-8.2 22.9 22.9 0 006.1-6c3.1-4.4 5.3-11 2.2-20C99.2 36.5 91 34 84.2 33.6A40.4 40.4 0 0072 34.9z" fill="#fff"/></g><g filter="url(#filter2_d)"><path d="M62 57a4 4 0 11-8 0 4 4 0 018 0z" fill="#FFF9F9"/></g><g filter="url(#filter3_d)"><path d="M88 57a4 4 0 11-8 0 4 4 0 018 0z" fill="#FFFCFC"/></g><g filter="url(#filter4_d)" fill="#FFFCFC"><path d="M10.8 75.7l-1.2-3 1-.3 2.7 6.8-1 .4-1.1-3-6.8 2.8-.4-1 6.8-2.7zM14.9 82l.6 1-3.9 2.3 2.6 4.4 3.9-2.3.6.9-7.1 4.3-.6-1 2.4-1.4-2.6-4.3-2.4 1.4-.6-1 7-4.2zM20.8 91l4 4.7-.7.6-3.3-3.9L19 94l3 3.5-.8.6-2.9-3.5-2.4 2 3.4 4-.7.7-4.1-4.9 6.3-5.3zM32.5 102.4l4.5 3.3-.6.8-3.6-2.7-2 3L34 109l-.5.8-3.4-2.4-1.6 2.3-.9-.6 4.9-6.8zM42.8 108.8l.5.3-.6 9-1-.5.1-2-3.7-1.9-1.6 1.2-1-.5 7.3-5.6zm-1 5.7l.2-1.8v-.8l.2-.7.1-.9-.5.5-.6.5-.6.5L39 113l2.9 1.4zM55 115.4a3.6 3.6 0 00-2.1-1.6c-.9-.3-1.7-.2-2.5.1a3 3 0 00-1.7 1.9c-.3.9-.2 1.8.2 2.6s1.1 1.4 2 1.7a4.5 4.5 0 002.7 0l.2.9c-.7.3-1.5.3-2.4.2a5.6 5.6 0 01-2.5-1l-1-1.3c-.3-.5-.5-1-.5-1.6-.1-.6 0-1 .1-1.6l.6-1.2a4.2 4.2 0 012.8-1.8c.8-.1 1.6 0 2.4.2 1 .4 1.9 1 2.5 1.9l-.8.6zM58.7 114.4l6.1 1-.1 1-5-.8-.5 2.2 4.5.7-.1 1-4.5-.7-.5 3 5.1.9-.2 1-6.2-1.1 1.4-8.2zM75.7 122.1c.8.4 1.5.7 2.3.8a4 4 0 002.3-.5c.5-.3.7-.7.6-1.2 0-.6-.4-1-1.3-1l-.7-.2H78c-1-.2-1.8-.4-2.3-.7-.4-.3-.6-.7-.7-1.2 0-.8.3-1.4 1-2a4 4 0 012.2-.8 6 6 0 013 .6l-.3 1a5.2 5.2 0 00-2.8-.5 3 3 0 00-1.3.4c-.5.2-.7.6-.6 1 0 .4.3.7 1 .9l.8.1 1.1.1a6 6 0 011.9.4l.8.7c.2.2.3.5.3 1 0 .4 0 .8-.2 1.1l-.7 1c-.6.4-1.4.7-2.4.8a5.9 5.9 0 01-3.5-.8l.4-1zM84.8 114.5l6-1.4.3 1-5 1.1.5 2.2 4.5-1 .2.9-4.4 1 .7 3 5-1.1.3 1-6.1 1.4-2-8zM97.1 110.7l.6-.2 6.5 6.3-1.1.4-1.4-1.3-3.9 1.5v2l-1.1.4.4-9.1zm3.8 4.4l-1.4-1.3-.5-.5-.4-.6a7 7 0 01-.6-.7v.7a38035.4 38035.4 0 000 1.6l-.1 2 3-1.2zM111 106.1c.6 1 .6 2.1-.2 3.1l3 2-1 .6-2.7-1.8a8 8 0 01-1 .7l-1.9 1.2 1.5 2.4-1 .5-4.3-7 3-1.8c1-.7 1.9-1 2.6-1 .8 0 1.5.3 2 1.1zm-2.3 3.7a4 4 0 001.5-1.3c.2-.5.2-1-.2-1.7-.5-.8-1.2-1-2.3-.4l-1 .5-1.8 1.1 1.8 3 2-1.2zM118.6 98.8c-.9 0-1.7.3-2.5 1-.7.5-1.1 1.3-1.2 2.2a3 3 0 00.7 2.3c.6.8 1.4 1.2 2.4 1.2.9 0 1.7-.2 2.4-.8a4.5 4.5 0 001.5-2.3l.8.3c-.1.8-.5 1.5-1 2.2l-.7.6a4.6 4.6 0 01-3.2 1.2c-.5 0-1-.2-1.6-.4-.5-.3-1-.6-1.2-1a4.1 4.1 0 01-.8-4.5 5 5 0 011.4-1.9c.8-.7 1.8-1 2.8-1.1l.2 1zM119.6 95.1l.8-.8 3.4 3 3.3-4-3.4-2.9.7-.8 6.3 5.4-.7.8-2.2-1.8-3.3 3.9 2.2 1.8-.8.8-6.3-5.4zM126.3 86.7l3.2-5.3.8.6-2.6 4.3 1.9 1.2 2.4-3.9.8.5-2.4 4 2.7 1.5 2.7-4.4.8.5-3.3 5.4-7-4.4zM136.3 72.4c1.1.4 1.7 1.3 1.7 2.5l3.5-.2-.5 1.1-3.2.2c0 .4-.2.8-.4 1.2l-.8 2 2.6 1-.4 1-7.7-3.1 1.3-3.2c.5-1.1 1-1.9 1.6-2.3.6-.5 1.4-.6 2.3-.2zm.3 4.3a4 4 0 00.4-2c0-.5-.4-1-1.1-1.3-.9-.3-1.6 0-2.2 1.1l-.4 1-.8 2 3.2 1.3.9-2.1z"/></g><defs><filter id="filter0_d" x="59.5" y="0" width="25.5" height="19.5" filterUnits="userSpaceOnUse" color-interpolation-filters="sRGB"><feFlood flood-opacity="0" result="BackgroundImageFix"/><feColorMatrix in="SourceAlpha" values="0 0 0 0 0 0 0 0 0 0 0 0 0 0 0 0 0 0 127 0"/><feOffset dy="4"/><feGaussianBlur stdDeviation="1.5"/><feColorMatrix values="0 0 0 0 0 0 0 0 0 0 0 0 0 0 0 0 0 0 0.3 0"/><feBlend in2="BackgroundImageFix" result="effect1_dropShadow"/><feBlend in="SourceGraphic" in2="effect1_dropShadow" result="shape"/></filter><filter id="filter1_d" x="18.8" y="11" width="106.3" height="93.5" filterUnits="userSpaceOnUse" color-interpolation-filters="sRGB"><feFlood flood-opacity="0" result="BackgroundImageFix"/><feColorMatrix in="SourceAlpha" values="0 0 0 0 0 0 0 0 0 0 0 0 0 0 0 0 0 0 127 0"/><feOffset dy="4"/><feGaussianBlur stdDeviation="1.5"/><feColorMatrix values="0 0 0 0 0 0 0 0 0 0 0 0 0 0 0 0 0 0 0.3 0"/><feBlend in2="BackgroundImageFix" result="effect1_dropShadow"/><feBlend in="SourceGraphic" in2="effect1_dropShadow" result="shape"/></filter><filter id="filter2_d" x="51" y="53" width="14" height="15" filterUnits="userSpaceOnUse" color-interpolation-filters="sRGB"><feFlood flood-opacity="0" result="BackgroundImageFix"/><feColorMatrix in="SourceAlpha" values="0 0 0 0 0 0 0 0 0 0 0 0 0 0 0 0 0 0 127 0"/><feOffset dy="4"/><feGaussianBlur stdDeviation="1.5"/><feColorMatrix values="0 0 0 0 0 0 0 0 0 0 0 0 0 0 0 0 0 0 0.3 0"/><feBlend in2="BackgroundImageFix" result="effect1_dropShadow"/><feBlend in="SourceGraphic" in2="effect1_dropShadow" result="shape"/></filter><filter id="filter3_d" x="77" y="53" width="14" height="15" filterUnits="userSpaceOnUse" color-interpolation-filters="sRGB"><feFlood flood-opacity="0" result="BackgroundImageFix"/><feColorMatrix in="SourceAlpha" values="0 0 0 0 0 0 0 0 0 0 0 0 0 0 0 0 0 0 127 0"/><feOffset dy="4"/><feGaussianBlur stdDeviation="1.5"/><feColorMatrix values="0 0 0 0 0 0 0 0 0 0 0 0 0 0 0 0 0 0 0.3 0"/><feBlend in2="BackgroundImageFix" result="effect1_dropShadow"/><feBlend in="SourceGraphic" in2="effect1_dropShadow" result="shape"/></filter><filter id="filter4_d" x="0" y="72.1" width="145.5" height="59.8" filterUnits="userSpaceOnUse" color-interpolation-filters="sRGB"><feFlood flood-opacity="0" result="BackgroundImageFix"/><feColorMatrix in="SourceAlpha" values="0 0 0 0 0 0 0 0 0 0 0 0 0 0 0 0 0 0 127 0"/><feOffset dy="4"/><feGaussianBlur stdDeviation="2"/><feColorMatrix values="0 0 0 0 0 0 0 0 0 0 0 0 0 0 0 0 0 0 0.25 0"/><feBlend in2="BackgroundImageFix" result="effect1_dropShadow"/><feBlend in="SourceGraphic" in2="effect1_dropShadow" result="shape"/></filter></defs></svg>